<svg xmlns="http://www.w3.org/2000/svg"
    width="2.66667in"
    height="2.66667in"
    viewBox="0 0 192 192">
  <path id="BG"
    fill="#009688"
    d="M 95.63,173.00
    C 52.88,173.00 18.25,138.36 18.25,95.63
      18.25,52.88 52.88,18.25 95.63,18.25
      138.36,18.25 173.00,52.88 173.00,95.63
      173.00,138.36 138.36,173.00 95.63,173.00 Z" />
  <path id="Shadow bottom"
    fill="black"
    fill-opacity="0.33"
    d="M 171.16,112.50
       C 164.10,144.24 137.53,168.64 104.69,172.48
         104.69,172.48 54.75,137.75 54.75,137.75
         54.75,137.75 69.00,93.75 69.00,93.75
         69.00,93.75 87.75,110.00 87.75,110.00
         87.75,110.00 92.36,110.91 92.36,110.91
         92.36,110.91 99.70,117.79 108.74,126.27
         108.74,126.27 115.76,116.92 115.76,116.92
         115.76,116.92 83.27,83.45 83.27,83.45
         83.27,83.45 96.36,41.82 96.36,41.82
         96.36,41.82 108.36,57.45 108.36,57.45
         108.36,57.45 107.64,41.64 107.64,41.64
         107.64,41.64 116.55,52.55 116.55,52.55
         116.55,52.55 119.00,46.25 119.00,46.25
         119.00,46.25 171.16,112.50 171.16,112.50 Z" />
  <path id="Shadow Top"
    fill="black"
    fill-opacity="0.33"
    d="M 163.88,131.88
       C 154.38,150.13 141.00,159.50 127.38,166.13
         127.38,166.13 98.75,139.88 98.75,139.88
         98.75,139.88 111.27,123.97 111.27,123.97
         111.27,123.97 98.46,108.43 98.46,108.43
         100.76,105.90 104.93,101.84 104.93,101.84
         104.93,101.84 121.84,115.27 121.84,115.27
         121.84,115.27 136.25,99.13 136.25,99.13
         136.25,99.13 163.88,131.88 163.88,131.88 Z" />
  <path id="Icons"
    fill="white"
    d="M 95.97,99.18
       C 95.97,99.18 98.71,108.65 98.71,108.65
         98.71,108.65 123.53,129.53 123.53,129.53
         123.53,129.53 118.52,134.54 118.52,134.54
         118.52,134.54 121.58,137.88 121.58,137.88
         121.58,137.88 126.59,132.87 126.59,132.87
         126.59,132.87 134.08,140.33 134.08,140.33
         134.08,140.33 137.27,137.19 137.27,137.19
         137.27,137.19 129.78,129.60 129.78,129.60
         129.78,129.60 134.79,124.69 134.79,124.69
         134.79,124.69 131.65,121.55 131.65,121.55
         131.65,121.55 126.64,126.41 126.64,126.41
         126.64,126.41 105.43,102.16 105.43,102.16
         105.43,102.16 95.97,99.18 95.97,99.18 Z
       M 123.20,118.11
       C 123.20,118.11 134.54,108.65 134.54,108.65
         134.54,108.65 137.07,99.13 137.07,99.13
         137.07,99.13 127.91,101.92 127.91,101.92
         127.91,101.92 118.54,112.75 118.54,112.75
         118.54,112.75 123.20,118.11 123.20,118.11 Z
       M 95.92,137.19
       C 95.92,137.19 99.01,140.28 99.01,140.28
         99.01,140.28 106.39,132.84 106.39,132.84
         106.39,132.84 111.46,137.95 111.46,137.95
         111.46,137.95 114.74,134.71 114.74,134.71
         114.74,134.71 109.63,129.60 109.63,129.60
         109.63,129.60 114.49,125.50 114.49,125.50
         114.49,125.50 110.39,122.11 110.39,122.11
         110.39,122.11 106.55,126.46 106.55,126.46
         106.55,126.46 101.54,121.45 101.54,121.45
         101.54,121.45 98.35,124.79 98.35,124.79
         98.35,124.79 103.26,129.70 103.26,129.70
         103.26,129.70 95.92,137.19 95.92,137.19 Z
       M 91.28,40.66
       C 91.28,40.66 75.86,46.91 75.86,46.91
         73.52,47.87 71.16,48.64 70.63,51.48
         70.19,53.80 72.59,58.68 73.57,60.96
         73.57,60.96 79.48,75.20 79.48,75.20
         79.48,75.20 83.04,83.49 83.04,83.49
         84.34,85.56 86.66,85.93 88.91,85.42
         88.91,85.42 93.65,83.56 93.65,83.56
         93.65,83.56 104.62,78.99 104.62,78.99
         106.96,78.04 108.86,77.36 109.41,74.60
         109.91,72.12 107.71,68.07 106.76,65.71
         106.76,65.71 100.60,50.88 100.60,50.88
         100.60,50.88 97.21,42.88 97.21,42.88
         95.72,40.50 93.85,40.24 91.28,40.66 Z
       M 101.06,40.51
       C 101.06,40.51 109.39,60.77 109.39,60.77
         109.39,60.77 109.37,56.76 109.37,55.33
         109.37,55.33 109.37,45.25 109.37,45.25
         109.35,43.81 109.19,42.83 108.12,41.76
         106.39,40.03 103.35,40.51 101.06,40.51 Z
       M 114.11,44.06
       C 114.11,44.06 114.11,65.71 114.11,65.71
         114.11,65.71 118.73,55.03 118.73,55.03
         119.45,53.24 120.45,51.37 120.31,49.40
         120.08,46.06 116.92,44.82 114.11,44.06 Z
       M 54.57,138.28
       C 54.57,138.28 58.40,121.86 58.40,121.86
         58.40,121.86 45.65,110.82 45.65,110.82
         45.65,110.82 62.44,109.39 62.44,109.39
         62.44,109.39 69.00,93.91 69.00,93.91
         69.00,93.91 75.57,109.39 75.57,109.39
         75.57,109.39 92.36,110.82 92.36,110.82
         92.36,110.82 79.61,121.86 79.61,121.86
         79.61,121.86 83.44,138.28 83.44,138.28
         83.44,138.28 69.00,129.57 69.00,129.57
         69.00,129.57 54.57,138.28 54.57,138.28 Z" />
</svg>
